<mxfile host="app.diagrams.net" modified="2023-11-13T09:22:18.513Z" agent="Mozilla/5.0 (Windows NT 10.0; Win64; x64) AppleWebKit/537.36 (KHTML, like Gecko) Chrome/119.0.0.0 Safari/537.36" etag="aVQsyCY0Fdg_a40kzAch" version="22.1.0" type="github">
  <diagram name="第 1 页" id="nLYVBq6XTIQoH3m8SgH6">
    <mxGraphModel dx="1510" dy="815" grid="1" gridSize="10" guides="1" tooltips="1" connect="1" arrows="1" fold="1" page="1" pageScale="1" pageWidth="827" pageHeight="1169" math="0" shadow="0">
      <root>
        <mxCell id="0" />
        <mxCell id="1" parent="0" />
        <mxCell id="peRj1bb6XK5e7dwiMOuo-285" value="" style="rounded=1;whiteSpace=wrap;html=1;strokeColor=#FFB570;dashed=1;" vertex="1" parent="1">
          <mxGeometry x="730" y="480" width="780" height="315" as="geometry" />
        </mxCell>
        <mxCell id="peRj1bb6XK5e7dwiMOuo-282" value="" style="rounded=1;whiteSpace=wrap;html=1;strokeColor=#7EA6E0;dashed=1;" vertex="1" parent="1">
          <mxGeometry x="1145" y="560" width="115" height="170" as="geometry" />
        </mxCell>
        <mxCell id="peRj1bb6XK5e7dwiMOuo-278" value="" style="rounded=1;whiteSpace=wrap;html=1;strokeColor=#7EA6E0;dashed=1;" vertex="1" parent="1">
          <mxGeometry x="1320" y="572.5" width="165" height="139.5" as="geometry" />
        </mxCell>
        <mxCell id="peRj1bb6XK5e7dwiMOuo-262" value="" style="rounded=1;whiteSpace=wrap;html=1;strokeColor=#7EA6E0;dashed=1;" vertex="1" parent="1">
          <mxGeometry x="960.5" y="495" width="110" height="280" as="geometry" />
        </mxCell>
        <mxCell id="peRj1bb6XK5e7dwiMOuo-1" value="" style="rounded=1;whiteSpace=wrap;html=1;strokeColor=#FFB570;" vertex="1" parent="1">
          <mxGeometry x="90" y="536.25" width="581" height="240" as="geometry" />
        </mxCell>
        <mxCell id="peRj1bb6XK5e7dwiMOuo-98" value="" style="rounded=1;whiteSpace=wrap;html=1;strokeColor=#FFB570;dashed=1;" vertex="1" parent="1">
          <mxGeometry x="394" y="566.5" width="146" height="93.5" as="geometry" />
        </mxCell>
        <mxCell id="peRj1bb6XK5e7dwiMOuo-96" style="edgeStyle=orthogonalEdgeStyle;rounded=0;orthogonalLoop=1;jettySize=auto;html=1;exitX=1;exitY=0.5;exitDx=0;exitDy=0;strokeColor=#7EA6E0;" edge="1" parent="1" source="peRj1bb6XK5e7dwiMOuo-2">
          <mxGeometry relative="1" as="geometry">
            <mxPoint x="270" y="605.2" as="targetPoint" />
          </mxGeometry>
        </mxCell>
        <mxCell id="peRj1bb6XK5e7dwiMOuo-2" value="" style="shape=document;whiteSpace=wrap;html=1;boundedLbl=1;strokeColor=#97D077;strokeWidth=1;" vertex="1" parent="1">
          <mxGeometry x="140" y="580" width="80" height="50" as="geometry" />
        </mxCell>
        <mxCell id="peRj1bb6XK5e7dwiMOuo-4" value="" style="shape=document;whiteSpace=wrap;html=1;boundedLbl=1;strokeColor=#97D077;strokeWidth=1;" vertex="1" parent="1">
          <mxGeometry x="130" y="585" width="80" height="50" as="geometry" />
        </mxCell>
        <mxCell id="peRj1bb6XK5e7dwiMOuo-5" value="" style="shape=document;whiteSpace=wrap;html=1;boundedLbl=1;strokeColor=#97D077;strokeWidth=1;" vertex="1" parent="1">
          <mxGeometry x="120" y="590" width="80" height="50" as="geometry" />
        </mxCell>
        <mxCell id="peRj1bb6XK5e7dwiMOuo-3" value="Unlabelled data" style="shape=document;whiteSpace=wrap;html=1;boundedLbl=1;strokeColor=#97D077;strokeWidth=1;" vertex="1" parent="1">
          <mxGeometry x="110" y="595" width="80" height="50" as="geometry" />
        </mxCell>
        <mxCell id="peRj1bb6XK5e7dwiMOuo-50" value="" style="group" vertex="1" connectable="0" parent="1">
          <mxGeometry x="580" y="561.5" width="71.5" height="95" as="geometry" />
        </mxCell>
        <mxCell id="peRj1bb6XK5e7dwiMOuo-6" value="" style="ellipse;whiteSpace=wrap;html=1;aspect=fixed;strokeColor=#7EA6E0;" vertex="1" parent="peRj1bb6XK5e7dwiMOuo-50">
          <mxGeometry x="26" width="20" height="20" as="geometry" />
        </mxCell>
        <mxCell id="peRj1bb6XK5e7dwiMOuo-24" style="rounded=0;orthogonalLoop=1;jettySize=auto;html=1;exitX=0.5;exitY=0;exitDx=0;exitDy=0;entryX=0.5;entryY=1;entryDx=0;entryDy=0;strokeColor=#7EA6E0;" edge="1" parent="peRj1bb6XK5e7dwiMOuo-50" source="peRj1bb6XK5e7dwiMOuo-7" target="peRj1bb6XK5e7dwiMOuo-6">
          <mxGeometry relative="1" as="geometry" />
        </mxCell>
        <mxCell id="peRj1bb6XK5e7dwiMOuo-7" value="" style="ellipse;whiteSpace=wrap;html=1;aspect=fixed;strokeColor=#7EA6E0;" vertex="1" parent="peRj1bb6XK5e7dwiMOuo-50">
          <mxGeometry y="35" width="20" height="20" as="geometry" />
        </mxCell>
        <mxCell id="peRj1bb6XK5e7dwiMOuo-25" style="edgeStyle=orthogonalEdgeStyle;rounded=0;orthogonalLoop=1;jettySize=auto;html=1;exitX=0.5;exitY=0;exitDx=0;exitDy=0;entryX=0.5;entryY=1;entryDx=0;entryDy=0;strokeColor=#7EA6E0;" edge="1" parent="peRj1bb6XK5e7dwiMOuo-50" source="peRj1bb6XK5e7dwiMOuo-8" target="peRj1bb6XK5e7dwiMOuo-6">
          <mxGeometry relative="1" as="geometry" />
        </mxCell>
        <mxCell id="peRj1bb6XK5e7dwiMOuo-8" value="" style="ellipse;whiteSpace=wrap;html=1;aspect=fixed;strokeColor=#7EA6E0;" vertex="1" parent="peRj1bb6XK5e7dwiMOuo-50">
          <mxGeometry x="26" y="35" width="20" height="20" as="geometry" />
        </mxCell>
        <mxCell id="peRj1bb6XK5e7dwiMOuo-26" style="rounded=0;orthogonalLoop=1;jettySize=auto;html=1;exitX=0.5;exitY=0;exitDx=0;exitDy=0;entryX=0.5;entryY=1;entryDx=0;entryDy=0;strokeColor=#7EA6E0;" edge="1" parent="peRj1bb6XK5e7dwiMOuo-50" source="peRj1bb6XK5e7dwiMOuo-9" target="peRj1bb6XK5e7dwiMOuo-6">
          <mxGeometry relative="1" as="geometry" />
        </mxCell>
        <mxCell id="peRj1bb6XK5e7dwiMOuo-9" value="" style="ellipse;whiteSpace=wrap;html=1;aspect=fixed;strokeColor=#7EA6E0;" vertex="1" parent="peRj1bb6XK5e7dwiMOuo-50">
          <mxGeometry x="51" y="35" width="20" height="20" as="geometry" />
        </mxCell>
        <mxCell id="peRj1bb6XK5e7dwiMOuo-15" style="rounded=0;orthogonalLoop=1;jettySize=auto;html=1;exitX=0.5;exitY=0;exitDx=0;exitDy=0;entryX=0.5;entryY=1;entryDx=0;entryDy=0;strokeColor=#7EA6E0;" edge="1" parent="peRj1bb6XK5e7dwiMOuo-50" source="peRj1bb6XK5e7dwiMOuo-11" target="peRj1bb6XK5e7dwiMOuo-9">
          <mxGeometry relative="1" as="geometry" />
        </mxCell>
        <mxCell id="peRj1bb6XK5e7dwiMOuo-16" style="rounded=0;orthogonalLoop=1;jettySize=auto;html=1;exitX=0.5;exitY=0;exitDx=0;exitDy=0;entryX=0.5;entryY=1;entryDx=0;entryDy=0;strokeColor=#7EA6E0;" edge="1" parent="peRj1bb6XK5e7dwiMOuo-50" source="peRj1bb6XK5e7dwiMOuo-11" target="peRj1bb6XK5e7dwiMOuo-8">
          <mxGeometry relative="1" as="geometry" />
        </mxCell>
        <mxCell id="peRj1bb6XK5e7dwiMOuo-17" style="edgeStyle=orthogonalEdgeStyle;rounded=0;orthogonalLoop=1;jettySize=auto;html=1;exitX=0.5;exitY=0;exitDx=0;exitDy=0;entryX=0.5;entryY=1;entryDx=0;entryDy=0;strokeColor=#7EA6E0;" edge="1" parent="peRj1bb6XK5e7dwiMOuo-50" source="peRj1bb6XK5e7dwiMOuo-11" target="peRj1bb6XK5e7dwiMOuo-7">
          <mxGeometry relative="1" as="geometry" />
        </mxCell>
        <mxCell id="peRj1bb6XK5e7dwiMOuo-11" value="" style="ellipse;whiteSpace=wrap;html=1;aspect=fixed;strokeColor=#7EA6E0;" vertex="1" parent="peRj1bb6XK5e7dwiMOuo-50">
          <mxGeometry x="0.5" y="75" width="20" height="20" as="geometry" />
        </mxCell>
        <mxCell id="peRj1bb6XK5e7dwiMOuo-18" style="rounded=0;orthogonalLoop=1;jettySize=auto;html=1;exitX=0.5;exitY=0;exitDx=0;exitDy=0;entryX=0.5;entryY=1;entryDx=0;entryDy=0;strokeColor=#7EA6E0;" edge="1" parent="peRj1bb6XK5e7dwiMOuo-50" source="peRj1bb6XK5e7dwiMOuo-12" target="peRj1bb6XK5e7dwiMOuo-7">
          <mxGeometry relative="1" as="geometry" />
        </mxCell>
        <mxCell id="peRj1bb6XK5e7dwiMOuo-19" style="edgeStyle=orthogonalEdgeStyle;rounded=0;orthogonalLoop=1;jettySize=auto;html=1;exitX=0.5;exitY=0;exitDx=0;exitDy=0;entryX=0.5;entryY=1;entryDx=0;entryDy=0;strokeColor=#7EA6E0;" edge="1" parent="peRj1bb6XK5e7dwiMOuo-50" source="peRj1bb6XK5e7dwiMOuo-12" target="peRj1bb6XK5e7dwiMOuo-8">
          <mxGeometry relative="1" as="geometry" />
        </mxCell>
        <mxCell id="peRj1bb6XK5e7dwiMOuo-20" style="rounded=0;orthogonalLoop=1;jettySize=auto;html=1;exitX=0.5;exitY=0;exitDx=0;exitDy=0;entryX=0.5;entryY=1;entryDx=0;entryDy=0;strokeColor=#7EA6E0;" edge="1" parent="peRj1bb6XK5e7dwiMOuo-50" source="peRj1bb6XK5e7dwiMOuo-12" target="peRj1bb6XK5e7dwiMOuo-9">
          <mxGeometry relative="1" as="geometry" />
        </mxCell>
        <mxCell id="peRj1bb6XK5e7dwiMOuo-12" value="" style="ellipse;whiteSpace=wrap;html=1;aspect=fixed;strokeColor=#7EA6E0;" vertex="1" parent="peRj1bb6XK5e7dwiMOuo-50">
          <mxGeometry x="25.5" y="75" width="20" height="20" as="geometry" />
        </mxCell>
        <mxCell id="peRj1bb6XK5e7dwiMOuo-21" style="rounded=0;orthogonalLoop=1;jettySize=auto;html=1;exitX=0.5;exitY=0;exitDx=0;exitDy=0;entryX=0.5;entryY=1;entryDx=0;entryDy=0;strokeColor=#7EA6E0;" edge="1" parent="peRj1bb6XK5e7dwiMOuo-50" source="peRj1bb6XK5e7dwiMOuo-13" target="peRj1bb6XK5e7dwiMOuo-7">
          <mxGeometry relative="1" as="geometry" />
        </mxCell>
        <mxCell id="peRj1bb6XK5e7dwiMOuo-22" style="rounded=0;orthogonalLoop=1;jettySize=auto;html=1;exitX=0.5;exitY=0;exitDx=0;exitDy=0;entryX=0.5;entryY=1;entryDx=0;entryDy=0;strokeColor=#7EA6E0;" edge="1" parent="peRj1bb6XK5e7dwiMOuo-50" source="peRj1bb6XK5e7dwiMOuo-13" target="peRj1bb6XK5e7dwiMOuo-8">
          <mxGeometry relative="1" as="geometry" />
        </mxCell>
        <mxCell id="peRj1bb6XK5e7dwiMOuo-23" style="edgeStyle=orthogonalEdgeStyle;rounded=0;orthogonalLoop=1;jettySize=auto;html=1;exitX=0.5;exitY=0;exitDx=0;exitDy=0;entryX=0.5;entryY=1;entryDx=0;entryDy=0;strokeColor=#7EA6E0;" edge="1" parent="peRj1bb6XK5e7dwiMOuo-50" source="peRj1bb6XK5e7dwiMOuo-13" target="peRj1bb6XK5e7dwiMOuo-9">
          <mxGeometry relative="1" as="geometry" />
        </mxCell>
        <mxCell id="peRj1bb6XK5e7dwiMOuo-13" value="" style="ellipse;whiteSpace=wrap;html=1;aspect=fixed;strokeColor=#7EA6E0;" vertex="1" parent="peRj1bb6XK5e7dwiMOuo-50">
          <mxGeometry x="51.5" y="75" width="20" height="20" as="geometry" />
        </mxCell>
        <mxCell id="peRj1bb6XK5e7dwiMOuo-71" value="" style="group" vertex="1" connectable="0" parent="1">
          <mxGeometry x="280" y="560" width="71.5" height="95" as="geometry" />
        </mxCell>
        <mxCell id="peRj1bb6XK5e7dwiMOuo-72" value="" style="ellipse;whiteSpace=wrap;html=1;aspect=fixed;strokeColor=#7EA6E0;" vertex="1" parent="peRj1bb6XK5e7dwiMOuo-71">
          <mxGeometry x="26" width="20" height="20" as="geometry" />
        </mxCell>
        <mxCell id="peRj1bb6XK5e7dwiMOuo-73" style="rounded=0;orthogonalLoop=1;jettySize=auto;html=1;exitX=0.5;exitY=0;exitDx=0;exitDy=0;entryX=0.5;entryY=1;entryDx=0;entryDy=0;strokeColor=#7EA6E0;" edge="1" parent="peRj1bb6XK5e7dwiMOuo-71" source="peRj1bb6XK5e7dwiMOuo-74" target="peRj1bb6XK5e7dwiMOuo-72">
          <mxGeometry relative="1" as="geometry" />
        </mxCell>
        <mxCell id="peRj1bb6XK5e7dwiMOuo-74" value="" style="ellipse;whiteSpace=wrap;html=1;aspect=fixed;strokeColor=#7EA6E0;" vertex="1" parent="peRj1bb6XK5e7dwiMOuo-71">
          <mxGeometry y="35" width="20" height="20" as="geometry" />
        </mxCell>
        <mxCell id="peRj1bb6XK5e7dwiMOuo-75" style="edgeStyle=orthogonalEdgeStyle;rounded=0;orthogonalLoop=1;jettySize=auto;html=1;exitX=0.5;exitY=0;exitDx=0;exitDy=0;entryX=0.5;entryY=1;entryDx=0;entryDy=0;strokeColor=#7EA6E0;" edge="1" parent="peRj1bb6XK5e7dwiMOuo-71" source="peRj1bb6XK5e7dwiMOuo-76" target="peRj1bb6XK5e7dwiMOuo-72">
          <mxGeometry relative="1" as="geometry" />
        </mxCell>
        <mxCell id="peRj1bb6XK5e7dwiMOuo-76" value="" style="ellipse;whiteSpace=wrap;html=1;aspect=fixed;strokeColor=#7EA6E0;" vertex="1" parent="peRj1bb6XK5e7dwiMOuo-71">
          <mxGeometry x="26" y="35" width="20" height="20" as="geometry" />
        </mxCell>
        <mxCell id="peRj1bb6XK5e7dwiMOuo-77" style="rounded=0;orthogonalLoop=1;jettySize=auto;html=1;exitX=0.5;exitY=0;exitDx=0;exitDy=0;entryX=0.5;entryY=1;entryDx=0;entryDy=0;strokeColor=#7EA6E0;" edge="1" parent="peRj1bb6XK5e7dwiMOuo-71" source="peRj1bb6XK5e7dwiMOuo-78" target="peRj1bb6XK5e7dwiMOuo-72">
          <mxGeometry relative="1" as="geometry" />
        </mxCell>
        <mxCell id="peRj1bb6XK5e7dwiMOuo-78" value="" style="ellipse;whiteSpace=wrap;html=1;aspect=fixed;strokeColor=#7EA6E0;" vertex="1" parent="peRj1bb6XK5e7dwiMOuo-71">
          <mxGeometry x="51" y="35" width="20" height="20" as="geometry" />
        </mxCell>
        <mxCell id="peRj1bb6XK5e7dwiMOuo-79" style="rounded=0;orthogonalLoop=1;jettySize=auto;html=1;exitX=0.5;exitY=0;exitDx=0;exitDy=0;entryX=0.5;entryY=1;entryDx=0;entryDy=0;strokeColor=#7EA6E0;" edge="1" parent="peRj1bb6XK5e7dwiMOuo-71" source="peRj1bb6XK5e7dwiMOuo-82" target="peRj1bb6XK5e7dwiMOuo-78">
          <mxGeometry relative="1" as="geometry" />
        </mxCell>
        <mxCell id="peRj1bb6XK5e7dwiMOuo-80" style="rounded=0;orthogonalLoop=1;jettySize=auto;html=1;exitX=0.5;exitY=0;exitDx=0;exitDy=0;entryX=0.5;entryY=1;entryDx=0;entryDy=0;strokeColor=#7EA6E0;" edge="1" parent="peRj1bb6XK5e7dwiMOuo-71" source="peRj1bb6XK5e7dwiMOuo-82" target="peRj1bb6XK5e7dwiMOuo-76">
          <mxGeometry relative="1" as="geometry" />
        </mxCell>
        <mxCell id="peRj1bb6XK5e7dwiMOuo-81" style="edgeStyle=orthogonalEdgeStyle;rounded=0;orthogonalLoop=1;jettySize=auto;html=1;exitX=0.5;exitY=0;exitDx=0;exitDy=0;entryX=0.5;entryY=1;entryDx=0;entryDy=0;strokeColor=#7EA6E0;" edge="1" parent="peRj1bb6XK5e7dwiMOuo-71" source="peRj1bb6XK5e7dwiMOuo-82" target="peRj1bb6XK5e7dwiMOuo-74">
          <mxGeometry relative="1" as="geometry" />
        </mxCell>
        <mxCell id="peRj1bb6XK5e7dwiMOuo-82" value="" style="ellipse;whiteSpace=wrap;html=1;aspect=fixed;strokeColor=#7EA6E0;" vertex="1" parent="peRj1bb6XK5e7dwiMOuo-71">
          <mxGeometry x="0.5" y="75" width="20" height="20" as="geometry" />
        </mxCell>
        <mxCell id="peRj1bb6XK5e7dwiMOuo-83" style="rounded=0;orthogonalLoop=1;jettySize=auto;html=1;exitX=0.5;exitY=0;exitDx=0;exitDy=0;entryX=0.5;entryY=1;entryDx=0;entryDy=0;strokeColor=#7EA6E0;" edge="1" parent="peRj1bb6XK5e7dwiMOuo-71" source="peRj1bb6XK5e7dwiMOuo-86" target="peRj1bb6XK5e7dwiMOuo-74">
          <mxGeometry relative="1" as="geometry" />
        </mxCell>
        <mxCell id="peRj1bb6XK5e7dwiMOuo-84" style="edgeStyle=orthogonalEdgeStyle;rounded=0;orthogonalLoop=1;jettySize=auto;html=1;exitX=0.5;exitY=0;exitDx=0;exitDy=0;entryX=0.5;entryY=1;entryDx=0;entryDy=0;strokeColor=#7EA6E0;" edge="1" parent="peRj1bb6XK5e7dwiMOuo-71" source="peRj1bb6XK5e7dwiMOuo-86" target="peRj1bb6XK5e7dwiMOuo-76">
          <mxGeometry relative="1" as="geometry" />
        </mxCell>
        <mxCell id="peRj1bb6XK5e7dwiMOuo-85" style="rounded=0;orthogonalLoop=1;jettySize=auto;html=1;exitX=0.5;exitY=0;exitDx=0;exitDy=0;entryX=0.5;entryY=1;entryDx=0;entryDy=0;strokeColor=#7EA6E0;" edge="1" parent="peRj1bb6XK5e7dwiMOuo-71" source="peRj1bb6XK5e7dwiMOuo-86" target="peRj1bb6XK5e7dwiMOuo-78">
          <mxGeometry relative="1" as="geometry" />
        </mxCell>
        <mxCell id="peRj1bb6XK5e7dwiMOuo-86" value="" style="ellipse;whiteSpace=wrap;html=1;aspect=fixed;strokeColor=#7EA6E0;" vertex="1" parent="peRj1bb6XK5e7dwiMOuo-71">
          <mxGeometry x="25.5" y="75" width="20" height="20" as="geometry" />
        </mxCell>
        <mxCell id="peRj1bb6XK5e7dwiMOuo-87" style="rounded=0;orthogonalLoop=1;jettySize=auto;html=1;exitX=0.5;exitY=0;exitDx=0;exitDy=0;entryX=0.5;entryY=1;entryDx=0;entryDy=0;strokeColor=#7EA6E0;" edge="1" parent="peRj1bb6XK5e7dwiMOuo-71" source="peRj1bb6XK5e7dwiMOuo-90" target="peRj1bb6XK5e7dwiMOuo-74">
          <mxGeometry relative="1" as="geometry" />
        </mxCell>
        <mxCell id="peRj1bb6XK5e7dwiMOuo-88" style="rounded=0;orthogonalLoop=1;jettySize=auto;html=1;exitX=0.5;exitY=0;exitDx=0;exitDy=0;entryX=0.5;entryY=1;entryDx=0;entryDy=0;strokeColor=#7EA6E0;" edge="1" parent="peRj1bb6XK5e7dwiMOuo-71" source="peRj1bb6XK5e7dwiMOuo-90" target="peRj1bb6XK5e7dwiMOuo-76">
          <mxGeometry relative="1" as="geometry" />
        </mxCell>
        <mxCell id="peRj1bb6XK5e7dwiMOuo-89" style="edgeStyle=orthogonalEdgeStyle;rounded=0;orthogonalLoop=1;jettySize=auto;html=1;exitX=0.5;exitY=0;exitDx=0;exitDy=0;entryX=0.5;entryY=1;entryDx=0;entryDy=0;strokeColor=#7EA6E0;" edge="1" parent="peRj1bb6XK5e7dwiMOuo-71" source="peRj1bb6XK5e7dwiMOuo-90" target="peRj1bb6XK5e7dwiMOuo-78">
          <mxGeometry relative="1" as="geometry" />
        </mxCell>
        <mxCell id="peRj1bb6XK5e7dwiMOuo-90" value="" style="ellipse;whiteSpace=wrap;html=1;aspect=fixed;strokeColor=#7EA6E0;" vertex="1" parent="peRj1bb6XK5e7dwiMOuo-71">
          <mxGeometry x="51.5" y="75" width="20" height="20" as="geometry" />
        </mxCell>
        <mxCell id="peRj1bb6XK5e7dwiMOuo-94" value="" style="shape=document;whiteSpace=wrap;html=1;boundedLbl=1;strokeColor=#97D077;strokeWidth=1;" vertex="1" parent="1">
          <mxGeometry x="230" y="710" width="80" height="50" as="geometry" />
        </mxCell>
        <mxCell id="peRj1bb6XK5e7dwiMOuo-95" value="Labelled &lt;br&gt;data" style="shape=document;whiteSpace=wrap;html=1;boundedLbl=1;strokeColor=#97D077;strokeWidth=1;" vertex="1" parent="1">
          <mxGeometry x="220" y="720" width="80" height="50" as="geometry" />
        </mxCell>
        <mxCell id="peRj1bb6XK5e7dwiMOuo-97" value="" style="endArrow=classic;html=1;rounded=0;strokeColor=#7EA6E0;" edge="1" parent="1">
          <mxGeometry width="50" height="50" relative="1" as="geometry">
            <mxPoint x="360" y="604.8" as="sourcePoint" />
            <mxPoint x="410" y="604.8" as="targetPoint" />
          </mxGeometry>
        </mxCell>
        <mxCell id="peRj1bb6XK5e7dwiMOuo-99" value="" style="endArrow=classic;html=1;rounded=0;strokeColor=#7EA6E0;" edge="1" parent="1">
          <mxGeometry width="50" height="50" relative="1" as="geometry">
            <mxPoint x="524" y="604.5999999999999" as="sourcePoint" />
            <mxPoint x="574" y="604.5999999999999" as="targetPoint" />
          </mxGeometry>
        </mxCell>
        <mxCell id="peRj1bb6XK5e7dwiMOuo-100" style="rounded=0;orthogonalLoop=1;jettySize=auto;html=1;exitX=0.5;exitY=0;exitDx=0;exitDy=0;strokeColor=#7EA6E0;" edge="1" parent="1" source="peRj1bb6XK5e7dwiMOuo-94">
          <mxGeometry relative="1" as="geometry">
            <mxPoint x="310" y="660" as="targetPoint" />
            <mxPoint x="270" y="690" as="sourcePoint" />
          </mxGeometry>
        </mxCell>
        <mxCell id="peRj1bb6XK5e7dwiMOuo-105" style="rounded=0;orthogonalLoop=1;jettySize=auto;html=1;strokeColor=#7EA6E0;edgeStyle=orthogonalEdgeStyle;curved=1;" edge="1" parent="1">
          <mxGeometry relative="1" as="geometry">
            <mxPoint x="330" y="660" as="targetPoint" />
            <mxPoint x="610" y="660" as="sourcePoint" />
            <Array as="points">
              <mxPoint x="610" y="690" />
              <mxPoint x="330" y="690" />
            </Array>
          </mxGeometry>
        </mxCell>
        <mxCell id="peRj1bb6XK5e7dwiMOuo-106" value="Teacher" style="text;html=1;strokeColor=none;fillColor=none;align=center;verticalAlign=middle;whiteSpace=wrap;rounded=0;" vertex="1" parent="1">
          <mxGeometry x="260" y="536.5" width="60" height="30" as="geometry" />
        </mxCell>
        <mxCell id="peRj1bb6XK5e7dwiMOuo-107" value="Student" style="text;html=1;strokeColor=none;fillColor=none;align=center;verticalAlign=middle;whiteSpace=wrap;rounded=0;" vertex="1" parent="1">
          <mxGeometry x="560" y="536.5" width="60" height="30" as="geometry" />
        </mxCell>
        <mxCell id="peRj1bb6XK5e7dwiMOuo-108" value="" style="shape=document;whiteSpace=wrap;html=1;boundedLbl=1;strokeColor=#97D077;strokeWidth=1;" vertex="1" parent="1">
          <mxGeometry x="442" y="582.5" width="80" height="50" as="geometry" />
        </mxCell>
        <mxCell id="peRj1bb6XK5e7dwiMOuo-109" value="" style="shape=document;whiteSpace=wrap;html=1;boundedLbl=1;strokeColor=#97D077;strokeWidth=1;" vertex="1" parent="1">
          <mxGeometry x="432" y="587.5" width="80" height="50" as="geometry" />
        </mxCell>
        <mxCell id="peRj1bb6XK5e7dwiMOuo-110" value="" style="shape=document;whiteSpace=wrap;html=1;boundedLbl=1;strokeColor=#97D077;strokeWidth=1;" vertex="1" parent="1">
          <mxGeometry x="422" y="592.5" width="80" height="50" as="geometry" />
        </mxCell>
        <mxCell id="peRj1bb6XK5e7dwiMOuo-111" value="Augmented data" style="shape=document;whiteSpace=wrap;html=1;boundedLbl=1;strokeColor=#97D077;strokeWidth=1;" vertex="1" parent="1">
          <mxGeometry x="412" y="597.5" width="80" height="50" as="geometry" />
        </mxCell>
        <mxCell id="peRj1bb6XK5e7dwiMOuo-112" value="" style="rounded=1;whiteSpace=wrap;html=1;" vertex="1" parent="1">
          <mxGeometry x="150" y="390" width="120" height="60" as="geometry" />
        </mxCell>
        <mxCell id="peRj1bb6XK5e7dwiMOuo-113" value="&lt;p style=&quot;margin-left:0cm;text-indent:0cm;mso-list:l0 level1 lfo1&quot; class=&quot;MsoNormal&quot;&gt;&lt;span style=&quot;font-size: 9pt;&quot; lang=&quot;EN-US&quot;&gt;Receiving block * src: * dest: *&lt;/span&gt;&lt;/p&gt;" style="shape=document;whiteSpace=wrap;html=1;boundedLbl=1;strokeColor=#97D077;strokeWidth=1;fontFamily=Times New Roman;" vertex="1" parent="1">
          <mxGeometry x="760" y="536.5" width="140" height="50" as="geometry" />
        </mxCell>
        <mxCell id="peRj1bb6XK5e7dwiMOuo-114" value="&lt;p style=&quot;margin-left:0cm;text-indent:0cm;mso-list:l0 level1 lfo1&quot; class=&quot;MsoNormal&quot;&gt;PacketResponder&lt;br&gt;* for block * terminating&lt;br&gt;&lt;/p&gt;" style="shape=document;whiteSpace=wrap;html=1;boundedLbl=1;strokeColor=#97D077;strokeWidth=1;fontStyle=0;fontFamily=Times New Roman;" vertex="1" parent="1">
          <mxGeometry x="760" y="697.5" width="140" height="50" as="geometry" />
        </mxCell>
        <mxCell id="peRj1bb6XK5e7dwiMOuo-176" value="" style="group;fontColor=#7EA6E0;" vertex="1" connectable="0" parent="1">
          <mxGeometry x="979.5" y="510" width="71.5" height="95" as="geometry" />
        </mxCell>
        <mxCell id="peRj1bb6XK5e7dwiMOuo-177" value="" style="ellipse;whiteSpace=wrap;html=1;aspect=fixed;strokeColor=#7EA6E0;" vertex="1" parent="peRj1bb6XK5e7dwiMOuo-176">
          <mxGeometry x="26" width="20" height="20" as="geometry" />
        </mxCell>
        <mxCell id="peRj1bb6XK5e7dwiMOuo-178" style="rounded=0;orthogonalLoop=1;jettySize=auto;html=1;exitX=0.5;exitY=0;exitDx=0;exitDy=0;entryX=0.5;entryY=1;entryDx=0;entryDy=0;strokeColor=#7EA6E0;" edge="1" parent="peRj1bb6XK5e7dwiMOuo-176" source="peRj1bb6XK5e7dwiMOuo-179" target="peRj1bb6XK5e7dwiMOuo-177">
          <mxGeometry relative="1" as="geometry" />
        </mxCell>
        <mxCell id="peRj1bb6XK5e7dwiMOuo-179" value="" style="ellipse;whiteSpace=wrap;html=1;aspect=fixed;strokeColor=#7EA6E0;" vertex="1" parent="peRj1bb6XK5e7dwiMOuo-176">
          <mxGeometry y="35" width="20" height="20" as="geometry" />
        </mxCell>
        <mxCell id="peRj1bb6XK5e7dwiMOuo-180" style="edgeStyle=orthogonalEdgeStyle;rounded=0;orthogonalLoop=1;jettySize=auto;html=1;exitX=0.5;exitY=0;exitDx=0;exitDy=0;entryX=0.5;entryY=1;entryDx=0;entryDy=0;strokeColor=#7EA6E0;" edge="1" parent="peRj1bb6XK5e7dwiMOuo-176" source="peRj1bb6XK5e7dwiMOuo-181" target="peRj1bb6XK5e7dwiMOuo-177">
          <mxGeometry relative="1" as="geometry" />
        </mxCell>
        <mxCell id="peRj1bb6XK5e7dwiMOuo-181" value="" style="ellipse;whiteSpace=wrap;html=1;aspect=fixed;strokeColor=#7EA6E0;" vertex="1" parent="peRj1bb6XK5e7dwiMOuo-176">
          <mxGeometry x="26" y="35" width="20" height="20" as="geometry" />
        </mxCell>
        <mxCell id="peRj1bb6XK5e7dwiMOuo-182" style="rounded=0;orthogonalLoop=1;jettySize=auto;html=1;exitX=0.5;exitY=0;exitDx=0;exitDy=0;entryX=0.5;entryY=1;entryDx=0;entryDy=0;strokeColor=#7EA6E0;" edge="1" parent="peRj1bb6XK5e7dwiMOuo-176" source="peRj1bb6XK5e7dwiMOuo-183" target="peRj1bb6XK5e7dwiMOuo-177">
          <mxGeometry relative="1" as="geometry" />
        </mxCell>
        <mxCell id="peRj1bb6XK5e7dwiMOuo-183" value="" style="ellipse;whiteSpace=wrap;html=1;aspect=fixed;strokeColor=#7EA6E0;" vertex="1" parent="peRj1bb6XK5e7dwiMOuo-176">
          <mxGeometry x="51" y="35" width="20" height="20" as="geometry" />
        </mxCell>
        <mxCell id="peRj1bb6XK5e7dwiMOuo-187" value="X" style="ellipse;whiteSpace=wrap;html=1;aspect=fixed;strokeColor=#7EA6E0;" vertex="1" parent="peRj1bb6XK5e7dwiMOuo-176">
          <mxGeometry x="0.5" y="75" width="20" height="20" as="geometry" />
        </mxCell>
        <mxCell id="peRj1bb6XK5e7dwiMOuo-188" style="rounded=0;orthogonalLoop=1;jettySize=auto;html=1;exitX=0.5;exitY=0;exitDx=0;exitDy=0;entryX=0.5;entryY=1;entryDx=0;entryDy=0;strokeColor=#7EA6E0;" edge="1" parent="peRj1bb6XK5e7dwiMOuo-176" source="peRj1bb6XK5e7dwiMOuo-191" target="peRj1bb6XK5e7dwiMOuo-179">
          <mxGeometry relative="1" as="geometry" />
        </mxCell>
        <mxCell id="peRj1bb6XK5e7dwiMOuo-189" style="edgeStyle=orthogonalEdgeStyle;rounded=0;orthogonalLoop=1;jettySize=auto;html=1;exitX=0.5;exitY=0;exitDx=0;exitDy=0;entryX=0.5;entryY=1;entryDx=0;entryDy=0;strokeColor=#7EA6E0;" edge="1" parent="peRj1bb6XK5e7dwiMOuo-176" source="peRj1bb6XK5e7dwiMOuo-191" target="peRj1bb6XK5e7dwiMOuo-181">
          <mxGeometry relative="1" as="geometry" />
        </mxCell>
        <mxCell id="peRj1bb6XK5e7dwiMOuo-190" style="rounded=0;orthogonalLoop=1;jettySize=auto;html=1;exitX=0.5;exitY=0;exitDx=0;exitDy=0;entryX=0.5;entryY=1;entryDx=0;entryDy=0;strokeColor=#7EA6E0;" edge="1" parent="peRj1bb6XK5e7dwiMOuo-176" source="peRj1bb6XK5e7dwiMOuo-191" target="peRj1bb6XK5e7dwiMOuo-183">
          <mxGeometry relative="1" as="geometry" />
        </mxCell>
        <mxCell id="peRj1bb6XK5e7dwiMOuo-191" value="" style="ellipse;whiteSpace=wrap;html=1;aspect=fixed;strokeColor=#7EA6E0;" vertex="1" parent="peRj1bb6XK5e7dwiMOuo-176">
          <mxGeometry x="25.5" y="75" width="20" height="20" as="geometry" />
        </mxCell>
        <mxCell id="peRj1bb6XK5e7dwiMOuo-192" style="rounded=0;orthogonalLoop=1;jettySize=auto;html=1;exitX=0.5;exitY=0;exitDx=0;exitDy=0;entryX=0.5;entryY=1;entryDx=0;entryDy=0;strokeColor=#7EA6E0;" edge="1" parent="peRj1bb6XK5e7dwiMOuo-176" source="peRj1bb6XK5e7dwiMOuo-195" target="peRj1bb6XK5e7dwiMOuo-179">
          <mxGeometry relative="1" as="geometry" />
        </mxCell>
        <mxCell id="peRj1bb6XK5e7dwiMOuo-193" style="rounded=0;orthogonalLoop=1;jettySize=auto;html=1;exitX=0.5;exitY=0;exitDx=0;exitDy=0;entryX=0.5;entryY=1;entryDx=0;entryDy=0;strokeColor=#7EA6E0;" edge="1" parent="peRj1bb6XK5e7dwiMOuo-176" source="peRj1bb6XK5e7dwiMOuo-195" target="peRj1bb6XK5e7dwiMOuo-181">
          <mxGeometry relative="1" as="geometry" />
        </mxCell>
        <mxCell id="peRj1bb6XK5e7dwiMOuo-194" style="edgeStyle=orthogonalEdgeStyle;rounded=0;orthogonalLoop=1;jettySize=auto;html=1;exitX=0.5;exitY=0;exitDx=0;exitDy=0;entryX=0.5;entryY=1;entryDx=0;entryDy=0;strokeColor=#7EA6E0;" edge="1" parent="peRj1bb6XK5e7dwiMOuo-176" source="peRj1bb6XK5e7dwiMOuo-195" target="peRj1bb6XK5e7dwiMOuo-183">
          <mxGeometry relative="1" as="geometry" />
        </mxCell>
        <mxCell id="peRj1bb6XK5e7dwiMOuo-195" value="" style="ellipse;whiteSpace=wrap;html=1;aspect=fixed;strokeColor=#7EA6E0;" vertex="1" parent="peRj1bb6XK5e7dwiMOuo-176">
          <mxGeometry x="51.5" y="75" width="20" height="20" as="geometry" />
        </mxCell>
        <mxCell id="peRj1bb6XK5e7dwiMOuo-238" value="" style="group" vertex="1" connectable="0" parent="1">
          <mxGeometry x="970" y="692.5" width="91" height="195" as="geometry" />
        </mxCell>
        <mxCell id="peRj1bb6XK5e7dwiMOuo-239" value="" style="ellipse;whiteSpace=wrap;html=1;aspect=fixed;strokeColor=#7EA6E0;" vertex="1" parent="peRj1bb6XK5e7dwiMOuo-238">
          <mxGeometry x="35.5" y="-25" width="20" height="20" as="geometry" />
        </mxCell>
        <mxCell id="peRj1bb6XK5e7dwiMOuo-240" style="rounded=0;orthogonalLoop=1;jettySize=auto;html=1;exitX=0.5;exitY=0;exitDx=0;exitDy=0;entryX=0.5;entryY=1;entryDx=0;entryDy=0;strokeColor=#7EA6E0;" edge="1" parent="peRj1bb6XK5e7dwiMOuo-238" source="peRj1bb6XK5e7dwiMOuo-241" target="peRj1bb6XK5e7dwiMOuo-239">
          <mxGeometry relative="1" as="geometry" />
        </mxCell>
        <mxCell id="peRj1bb6XK5e7dwiMOuo-241" value="" style="ellipse;whiteSpace=wrap;html=1;aspect=fixed;strokeColor=#7EA6E0;" vertex="1" parent="peRj1bb6XK5e7dwiMOuo-238">
          <mxGeometry x="9.5" y="10" width="20" height="20" as="geometry" />
        </mxCell>
        <mxCell id="peRj1bb6XK5e7dwiMOuo-242" style="edgeStyle=orthogonalEdgeStyle;rounded=0;orthogonalLoop=1;jettySize=auto;html=1;exitX=0.5;exitY=0;exitDx=0;exitDy=0;entryX=0.5;entryY=1;entryDx=0;entryDy=0;strokeColor=#7EA6E0;" edge="1" parent="peRj1bb6XK5e7dwiMOuo-238" source="peRj1bb6XK5e7dwiMOuo-243" target="peRj1bb6XK5e7dwiMOuo-239">
          <mxGeometry relative="1" as="geometry" />
        </mxCell>
        <mxCell id="peRj1bb6XK5e7dwiMOuo-243" value="" style="ellipse;whiteSpace=wrap;html=1;aspect=fixed;strokeColor=#7EA6E0;" vertex="1" parent="peRj1bb6XK5e7dwiMOuo-238">
          <mxGeometry x="35.5" y="10" width="20" height="20" as="geometry" />
        </mxCell>
        <mxCell id="peRj1bb6XK5e7dwiMOuo-244" style="rounded=0;orthogonalLoop=1;jettySize=auto;html=1;exitX=0.5;exitY=0;exitDx=0;exitDy=0;entryX=0.5;entryY=1;entryDx=0;entryDy=0;strokeColor=#7EA6E0;" edge="1" parent="peRj1bb6XK5e7dwiMOuo-238" source="peRj1bb6XK5e7dwiMOuo-245" target="peRj1bb6XK5e7dwiMOuo-239">
          <mxGeometry relative="1" as="geometry" />
        </mxCell>
        <mxCell id="peRj1bb6XK5e7dwiMOuo-245" value="" style="ellipse;whiteSpace=wrap;html=1;aspect=fixed;strokeColor=#7EA6E0;" vertex="1" parent="peRj1bb6XK5e7dwiMOuo-238">
          <mxGeometry x="60.5" y="10" width="20" height="20" as="geometry" />
        </mxCell>
        <mxCell id="peRj1bb6XK5e7dwiMOuo-246" style="rounded=0;orthogonalLoop=1;jettySize=auto;html=1;exitX=0.5;exitY=0;exitDx=0;exitDy=0;entryX=0.5;entryY=1;entryDx=0;entryDy=0;strokeColor=#7EA6E0;" edge="1" parent="peRj1bb6XK5e7dwiMOuo-238" source="peRj1bb6XK5e7dwiMOuo-249" target="peRj1bb6XK5e7dwiMOuo-245">
          <mxGeometry relative="1" as="geometry" />
        </mxCell>
        <mxCell id="peRj1bb6XK5e7dwiMOuo-247" style="rounded=0;orthogonalLoop=1;jettySize=auto;html=1;exitX=0.5;exitY=0;exitDx=0;exitDy=0;entryX=0.5;entryY=1;entryDx=0;entryDy=0;strokeColor=#7EA6E0;" edge="1" parent="peRj1bb6XK5e7dwiMOuo-238" source="peRj1bb6XK5e7dwiMOuo-249" target="peRj1bb6XK5e7dwiMOuo-243">
          <mxGeometry relative="1" as="geometry" />
        </mxCell>
        <mxCell id="peRj1bb6XK5e7dwiMOuo-248" style="edgeStyle=orthogonalEdgeStyle;rounded=0;orthogonalLoop=1;jettySize=auto;html=1;exitX=0.5;exitY=0;exitDx=0;exitDy=0;entryX=0.5;entryY=1;entryDx=0;entryDy=0;strokeColor=#7EA6E0;" edge="1" parent="peRj1bb6XK5e7dwiMOuo-238" source="peRj1bb6XK5e7dwiMOuo-249" target="peRj1bb6XK5e7dwiMOuo-241">
          <mxGeometry relative="1" as="geometry" />
        </mxCell>
        <mxCell id="peRj1bb6XK5e7dwiMOuo-249" value="" style="ellipse;whiteSpace=wrap;html=1;aspect=fixed;strokeColor=#7EA6E0;" vertex="1" parent="peRj1bb6XK5e7dwiMOuo-238">
          <mxGeometry x="10" y="50" width="20" height="20" as="geometry" />
        </mxCell>
        <mxCell id="peRj1bb6XK5e7dwiMOuo-253" value="X" style="ellipse;whiteSpace=wrap;html=1;aspect=fixed;strokeColor=#7EA6E0;" vertex="1" parent="peRj1bb6XK5e7dwiMOuo-238">
          <mxGeometry x="35" y="50" width="20" height="20" as="geometry" />
        </mxCell>
        <mxCell id="peRj1bb6XK5e7dwiMOuo-254" style="rounded=0;orthogonalLoop=1;jettySize=auto;html=1;exitX=0.5;exitY=0;exitDx=0;exitDy=0;entryX=0.5;entryY=1;entryDx=0;entryDy=0;strokeColor=#7EA6E0;" edge="1" parent="peRj1bb6XK5e7dwiMOuo-238" source="peRj1bb6XK5e7dwiMOuo-257" target="peRj1bb6XK5e7dwiMOuo-241">
          <mxGeometry relative="1" as="geometry" />
        </mxCell>
        <mxCell id="peRj1bb6XK5e7dwiMOuo-255" style="rounded=0;orthogonalLoop=1;jettySize=auto;html=1;exitX=0.5;exitY=0;exitDx=0;exitDy=0;entryX=0.5;entryY=1;entryDx=0;entryDy=0;strokeColor=#7EA6E0;" edge="1" parent="peRj1bb6XK5e7dwiMOuo-238" source="peRj1bb6XK5e7dwiMOuo-257" target="peRj1bb6XK5e7dwiMOuo-243">
          <mxGeometry relative="1" as="geometry" />
        </mxCell>
        <mxCell id="peRj1bb6XK5e7dwiMOuo-256" style="edgeStyle=orthogonalEdgeStyle;rounded=0;orthogonalLoop=1;jettySize=auto;html=1;exitX=0.5;exitY=0;exitDx=0;exitDy=0;entryX=0.5;entryY=1;entryDx=0;entryDy=0;strokeColor=#7EA6E0;" edge="1" parent="peRj1bb6XK5e7dwiMOuo-238" source="peRj1bb6XK5e7dwiMOuo-257" target="peRj1bb6XK5e7dwiMOuo-245">
          <mxGeometry relative="1" as="geometry" />
        </mxCell>
        <mxCell id="peRj1bb6XK5e7dwiMOuo-257" value="" style="ellipse;whiteSpace=wrap;html=1;aspect=fixed;strokeColor=#7EA6E0;" vertex="1" parent="peRj1bb6XK5e7dwiMOuo-238">
          <mxGeometry x="61" y="50" width="20" height="20" as="geometry" />
        </mxCell>
        <mxCell id="peRj1bb6XK5e7dwiMOuo-261" value="1..T" style="ellipse;shape=cloud;whiteSpace=wrap;html=1;strokeColor=#7EA6E0;" vertex="1" parent="1">
          <mxGeometry x="965.25" y="622.5" width="100" height="28" as="geometry" />
        </mxCell>
        <mxCell id="peRj1bb6XK5e7dwiMOuo-263" style="edgeStyle=orthogonalEdgeStyle;rounded=0;orthogonalLoop=1;jettySize=auto;html=1;exitX=1;exitY=0.5;exitDx=0;exitDy=0;strokeColor=#7EA6E0;" edge="1" parent="1">
          <mxGeometry relative="1" as="geometry">
            <mxPoint x="960" y="561.14" as="targetPoint" />
            <mxPoint x="900" y="561.3" as="sourcePoint" />
          </mxGeometry>
        </mxCell>
        <mxCell id="peRj1bb6XK5e7dwiMOuo-264" style="rounded=0;orthogonalLoop=1;jettySize=auto;html=1;exitX=1;exitY=0.5;exitDx=0;exitDy=0;strokeColor=#7EA6E0;entryX=-0.019;entryY=0.82;entryDx=0;entryDy=0;entryPerimeter=0;" edge="1" parent="1" source="peRj1bb6XK5e7dwiMOuo-113" target="peRj1bb6XK5e7dwiMOuo-262">
          <mxGeometry relative="1" as="geometry">
            <mxPoint x="940" y="690" as="targetPoint" />
            <mxPoint x="910" y="567.16" as="sourcePoint" />
          </mxGeometry>
        </mxCell>
        <mxCell id="peRj1bb6XK5e7dwiMOuo-265" style="edgeStyle=orthogonalEdgeStyle;rounded=0;orthogonalLoop=1;jettySize=auto;html=1;exitX=1;exitY=0.5;exitDx=0;exitDy=0;strokeColor=#7EA6E0;" edge="1" parent="1">
          <mxGeometry relative="1" as="geometry">
            <mxPoint x="960.5" y="722.18" as="targetPoint" />
            <mxPoint x="900.5" y="722.3399999999999" as="sourcePoint" />
          </mxGeometry>
        </mxCell>
        <mxCell id="peRj1bb6XK5e7dwiMOuo-266" style="rounded=0;orthogonalLoop=1;jettySize=auto;html=1;strokeColor=#7EA6E0;" edge="1" parent="1">
          <mxGeometry relative="1" as="geometry">
            <mxPoint x="960" y="560" as="targetPoint" />
            <mxPoint x="900" y="720" as="sourcePoint" />
          </mxGeometry>
        </mxCell>
        <mxCell id="peRj1bb6XK5e7dwiMOuo-267" value="Easy&lt;br&gt;Sample" style="shape=document;whiteSpace=wrap;html=1;boundedLbl=1;strokeColor=#97D077;strokeWidth=1;" vertex="1" parent="1">
          <mxGeometry x="1161" y="572.5" width="80" height="50" as="geometry" />
        </mxCell>
        <mxCell id="peRj1bb6XK5e7dwiMOuo-268" value="Hard&lt;br&gt;Sample" style="shape=document;whiteSpace=wrap;html=1;boundedLbl=1;strokeColor=#97D077;strokeWidth=1;" vertex="1" parent="1">
          <mxGeometry x="1161" y="670" width="80" height="50" as="geometry" />
        </mxCell>
        <mxCell id="peRj1bb6XK5e7dwiMOuo-269" style="rounded=0;orthogonalLoop=1;jettySize=auto;html=1;exitX=1;exitY=0.5;exitDx=0;exitDy=0;strokeColor=#7EA6E0;entryX=-0.009;entryY=0.415;entryDx=0;entryDy=0;entryPerimeter=0;" edge="1" parent="1" target="peRj1bb6XK5e7dwiMOuo-267">
          <mxGeometry relative="1" as="geometry">
            <mxPoint x="1160" y="600" as="targetPoint" />
            <mxPoint x="1070.5" y="557.3199999999999" as="sourcePoint" />
          </mxGeometry>
        </mxCell>
        <mxCell id="peRj1bb6XK5e7dwiMOuo-270" style="rounded=0;orthogonalLoop=1;jettySize=auto;html=1;exitX=1.007;exitY=0.225;exitDx=0;exitDy=0;strokeColor=#7EA6E0;exitPerimeter=0;entryX=0;entryY=0.5;entryDx=0;entryDy=0;" edge="1" parent="1" source="peRj1bb6XK5e7dwiMOuo-262" target="peRj1bb6XK5e7dwiMOuo-268">
          <mxGeometry relative="1" as="geometry">
            <mxPoint x="1161" y="618.84" as="targetPoint" />
            <mxPoint x="1071.5" y="576.16" as="sourcePoint" />
          </mxGeometry>
        </mxCell>
        <mxCell id="peRj1bb6XK5e7dwiMOuo-271" style="rounded=0;orthogonalLoop=1;jettySize=auto;html=1;exitX=1.007;exitY=0.225;exitDx=0;exitDy=0;strokeColor=#7EA6E0;exitPerimeter=0;entryX=-0.002;entryY=0.409;entryDx=0;entryDy=0;entryPerimeter=0;" edge="1" parent="1" target="peRj1bb6XK5e7dwiMOuo-267">
          <mxGeometry relative="1" as="geometry">
            <mxPoint x="1161" y="863.5" as="targetPoint" />
            <mxPoint x="1071" y="726.5" as="sourcePoint" />
          </mxGeometry>
        </mxCell>
        <mxCell id="peRj1bb6XK5e7dwiMOuo-272" style="rounded=0;orthogonalLoop=1;jettySize=auto;html=1;exitX=1.007;exitY=0.833;exitDx=0;exitDy=0;strokeColor=#7EA6E0;exitPerimeter=0;entryX=0;entryY=0.5;entryDx=0;entryDy=0;" edge="1" parent="1" source="peRj1bb6XK5e7dwiMOuo-262" target="peRj1bb6XK5e7dwiMOuo-268">
          <mxGeometry relative="1" as="geometry">
            <mxPoint x="1180" y="622.5" as="targetPoint" />
            <mxPoint x="1090" y="756" as="sourcePoint" />
          </mxGeometry>
        </mxCell>
        <mxCell id="peRj1bb6XK5e7dwiMOuo-274" value="" style="shape=document;whiteSpace=wrap;html=1;boundedLbl=1;strokeColor=#97D077;strokeWidth=1;" vertex="1" parent="1">
          <mxGeometry x="1380" y="581.25" width="80" height="50" as="geometry" />
        </mxCell>
        <mxCell id="peRj1bb6XK5e7dwiMOuo-275" value="" style="shape=document;whiteSpace=wrap;html=1;boundedLbl=1;strokeColor=#97D077;strokeWidth=1;" vertex="1" parent="1">
          <mxGeometry x="1370" y="586.25" width="80" height="50" as="geometry" />
        </mxCell>
        <mxCell id="peRj1bb6XK5e7dwiMOuo-276" value="" style="shape=document;whiteSpace=wrap;html=1;boundedLbl=1;strokeColor=#97D077;strokeWidth=1;" vertex="1" parent="1">
          <mxGeometry x="1360" y="591.25" width="80" height="50" as="geometry" />
        </mxCell>
        <mxCell id="peRj1bb6XK5e7dwiMOuo-277" value="Selected&lt;br&gt;Samples" style="shape=document;whiteSpace=wrap;html=1;boundedLbl=1;strokeColor=#97D077;strokeWidth=1;" vertex="1" parent="1">
          <mxGeometry x="1350" y="596.25" width="80" height="50" as="geometry" />
        </mxCell>
        <mxCell id="peRj1bb6XK5e7dwiMOuo-279" value="" style="shape=image;verticalLabelPosition=bottom;labelBackgroundColor=default;verticalAlign=top;aspect=fixed;imageAspect=0;image=data:image/png,iVBORw0KGgoAAAANSUhEUgAAAMYAAAA1CAYAAAAanZTqAAAHtklEQVR4Ae2YjVErOwyFaYEaaIEeKIEaaIEO6IAOqIAKaIAG6IAe8uZj3uH66kq27OwmgZFnMk60tn6OdGRvrg41CoFC4B8Erv6RlKAQKAQORYwqgkLAQaCI4YBSokKgiFE1UAg4CBQxHFBKVAgUMaoGCgEHgSKGA0qJCoEiRtVAIeAgUMRwQClRIVDEqBr4C4GPj4/D3d3d4erq6nB9fX14eHg4vL6+fq95fn4+vLy8fP/+rV+KGD8os09PT18FS9HqQxFvOR4fHw9vb29fKiEJRLi9vf22x/NLHFtjU8S4xCwHPin5W5JBOkU0kQIX+I7cnhhay9yuD9w+uVgxHYNTEePkaVs3uEXCPev39/dfBLBXJF2psNsOrW8J0z4/9/ctcDo7MTiuOZ5vbm6W8eS4J4k2scsKL3TjFgn3QpPetvvznZxwKlhicLWyMk/vuWSK58eeGBSyXvAgyDEDXSQSMD4/P49RdbF7t0i4Fxyd316L1GgsMYTzJWO8BU5nOzEAGNCZtxoki27G55ITtxrvasLZ175A29NZ7xI6MXRa4GdLDDBl78wVivxCMk711YFNbhXZ5rmKU+vfEjEEJKCNPl6BEiAnxR7/cOypuwXumO8jzPTcFuBKwiEEWKvoeT/g0w7lU2soZH3HF+wymHmWGeSdtRT1sc2PnPK3MXFkdK3gZGNaIgZKcFAJtEoBhSBIijcAjL0eabz1szIIh34ld3b/3utJtLDzfIzwmU241o+KSf7gC5+2+PETPWo4zKNBXsk9ny1zrJobxaO42zhGPtvny8QAQECLjCPHQTuUBDrAXuMUNo71XcTw9ICbh+tswunW2MkUJ+soOOy2ZEWOXU4ZL5+e/zQmGmOGRN7+niyjexYnz94yMbgzCjRPcSTTvhHro/1ZOUVBci5xvL+/d5tK5PNMwrU2OrWtDXIJKSwhJQfPDMHUMPe4JuMzPsgnG4N+K3Ybi55n5mVi0PFx0N6DR0Zxln0URzTQqW7nBcd+fSI9+q+97X6RvVPLdSWYLZ5MwlWYwqedey/AWmfxkjybZ9VF77QgZ6oDe93imXIfEXFkI4PTKOfLxJDzLQCAOurS2hc5hj4CBxSBZ5MCeCSsZ0vgzJxMsqdiyM5RLJFciW19I17iiYiOLsXkNQtrC9Lhv8XOrtNvCtTTiw5Prn12JgZy3Bs0LfKs24MIS+zsx2bvpFNj0T5rawYnu1e/l4hBUDjfFiaJjcCVMWb28ckMAWA7q4gBANEQOL010d695WoOLQlElp5txZQpVNaAc9u4erq3eKbTyv7rFemmZvCR9XwHF3AYDeU/wmEGp8hWrkLNbrqQCtzOo0LUeqPS/SkCWgBEmF7SBc7IH9fwjkIVg3BoZxundUMxjdaxD71t47K69vitvMxgTjOFEDS/LKEUX3QyzeAU4bBEDB3T7VGmhI+ObhVC5JCVk1ybYApj1FkEzkySrO09fqup2CKgQOzJaO0rphEx1FGtDatv69/ybwZznZTETw1lR6+O5McIp56tJWIQBI55L2q9Lo4jukb0nGqfERy2BJreY0Z2BA5dLDtkS6Bn56x+1qmp2OLB9shXxTRKuO7u1saMnytr5d+MXe0ZNVTrj3Jj5fyWzhFO3l7JlojRc0qKo1nF196vo7XIFaRIyP4M8HRL/NS+no1TPlP8K34Ji1HC1YVXbByDhfzL5Ac71IAaZXaP/OvVoPwY4SRd3jxNDMDGqcgoTkXPcEDdbNQd5azurezDNkDq9NAab2advYJ5604t6yVU2EY+ZROuYsvgFNlakStXmSLHN/zU1bJXM54v4Mh+b2Rx8vZKNk0MGfWCJ1iK0Xsmg3qhHr0jaL3uy1xBBKSeRfOsjUjP1nIVflQEyKNn+CLse2vIQa9oto6p1af4Ru82+Mh1XDVAPPicHaqJCIcMTiNbeW/+1xS9X1CM0TPrhIAAoMxQlx0BLl26x5OoSxryyzYOcND1xz5r/c8kXB04i1Wrf4vvNMaok4u05JNaUf7bWwRFHxW8/NPJxD5vZHDy9rWyKWLo3q5CjebWgPd9tqMDIoALSE+nZLO6tW/vWcmPMJO8R+ZMwrWG+RxDBCcPdoi0FH6bS75DJjDgGeTojZ4N9gmDEcF6NqaI0VM0+0ysZ+4NHc+Zfy0AGBK13ain+6c9yyScYqDAegTbM27li9Nxj0GORaBIfwanaK/kZyMGDkAKTgJAbDuInKNz6Llk0UxC6Dq2G0Xrf6I8k3CKBszOOUYd/RjfMrozOI18OCsxcI4jF2LoXkphczpQ6CSY7j8aXFPYNzp9Rnou/fko4bqqUDznHHud3NlbxginDDZnJ4Z1ko6nz2+9EtmYs797CVcx0ky80zdrY6t1+ECzouEde61DF82T2DLNr4dTNr6LIgYA6CoQXa+ygf3GdVHCwQrc+HPEe+k9JxYUMgSJ/kHK+Aa5iDEbW4RTxpbWXBQx5FTNPgJKuE5UZoquxp9/orbCpohRVVUIOAgUMRxQSlQIFDGqBgoBB4EihgNKiQqBIkbVQCHgIFDEcEApUSFQxKgaKAQcBIoYDiglKgSKGFUDhYCDQBHDAaVEhUARo2qgEHAQKGI4oJSoEChiVA0UAg4CRQwHlBIVAkWMqoFCwEHgP7E44FEISHKkAAAAAElFTkSuQmCC;" vertex="1" parent="1">
          <mxGeometry x="1154.3000000000002" y="630" width="93.4" height="25" as="geometry" />
        </mxCell>
        <mxCell id="peRj1bb6XK5e7dwiMOuo-280" value="" style="shape=image;verticalLabelPosition=bottom;labelBackgroundColor=default;verticalAlign=top;aspect=fixed;imageAspect=0;image=data:image/png,iVBORw0KGgoAAAANSUhEUgAAAPQAAAArCAYAAABPR6UEAAAIVklEQVR4Ae2ai5EUORBE1wVswAV8wARswAU8wAM8wAIswAEcwAN8mIu3d2+vTie1SvPZne4pRWyoW9+qrMySpuHpVKUQKAQOg8DTYTwpRwqBQuBUgi4SFAIHQqAEfaBgliuFQAm6OFAIHAiBEvSBglmuFAIl6OJAIXAgBErQBwpmufIvAr9//z59/Pjx9PT0dHr37t3p8+fPpx8/frwM+Pbt2+n79+8v70d5KEEfJZLlx38Q+PLly+nnz5/PbYgbAX/48OFZ4Iic/iOWEvQRo/qAPiFehOrf169fX1D48+fP8ykdRfzr16+XscyJ418m7vChBL3DoJXJfQQ4hREn1+tYECvtXMFjcXwUeuzf43MJeo9RK5u7CHhKx9PW0/n9+/f/EzRCbkXeXXhHjSXoHQWrTN1GAPG212fEzYmNcKN4+V3NWK7eRyoPJ2i+bBJYrlvnlk+fPj2TxI8u567zyPMQU/s3w4Ov1MQuzkOYsdDnCe3p7BfvKGhiuHLVJtYkBuadW7K8if75nN3zIkFzjXFD6ggYBvjbJY55q4xIcLEPmy/95wrWwjf+OWSFFNmgXDpuD3GRE1lfwZk5JmJq8G8LYxQ0tc/EXn4iTuYSx0xhb8azVnZOb91zeLOK00WCJvPhKJsCVs9Zshr9jHurEw27+CcL/no29sDPtJGc8Kv9CJOZe8sxe4jLClHhDeMzOJPMFB7PxjsKGh5kkzp7EuNrHkQrvFnBCU5dJGgWACg2NRO2RKWdfjNr2/8a72bY9np2jb25BuJf/E8L11j30jXuPS4rRPVQyGCM34yHd5GTChoe8pwpt4xtdu0VnPDpYkEr2AheBIssmQUwzrvWs9n9lldjMj5Z3NPgWrazDmt6ShDcbFK697hkiWr8GJ/BF64Rj3g6g6Pt2dOWvRjLWrcqGd5kcdLGmwqabJghIeQjAIwFRAhMBuPZAsCetIzzysT1hY8NOt5ejczuIyEoGPduTwGFQf/ogwi2RJu0eVbHvZmPrbTFQtDp4y/iEcf0nrWbui33EBd9am2L745p61EcmItwGd/6bXs2sWdiGuNHbCL36HPPllP6mNlD350zq28maBzCyRbYaFB0GpLxHtsQuYUgAgD9OAlYvCsCAhXHOw8beu32M49TwJOgl5FNGNjYKyQLbNoiWm+eATdo1OyPjxRFqY+9NUZtzm3xZ+17iIs+j+y33atpVoiMwz8xdB2w7rXb39bGfHQQMF7uIOQYf/aOibi1xb0yvMni5JoXC9ps3xIHEiKkkTMCgsGtUCQja/QKcwgOQdoqijQrNOxl7dZm5s/IQD9zs0XbFCt78swaECUT7K297jku2I2fGbzkAsn7NQu2EdNsQcCOhy8xMW+tMeNNFif3yDPQGU0tMaNobKMeFQnbOz23gmg2BIit7Mm+XmnaZDOySUG1dmPjKLm4lqftzCbHI9qe79ogQdrk4vxZbQzuMS7YniWquMbr7Mz3S/vl5uzAiPsQT3wikRLXbNz0b8SbLE7acjVBR+chYySSm8Va4ranM2Ps6wVRkQLgrJgYsoL2VIs2KYwR4NpgYNpkYH9bM76XJCAChCCQl5xK2n2PcQGLLFFJ3J58LYa3eu9hN9tLXmJrj7ej+TPeZHFy/asLGjFkTk9J23OevlEQFXtGOKuCNpAxWQB4fBe4tp4Fpje+J2jG6ePoY0q7Vu9dXxT0PcUFezNEhRuM04een7doa7HL7OGcDFfiejPeZHCK610s6Hg94XRBiPGEi5vF55GhAjMKIqc/czNXmlVBY18kELbgT2avWWCi7zwjWhJXW2Km7/W340fv9xwXbB7FP/ojFtkbVpx7yfOMg+3a8MOfSCPetnN8n/Emg5NrUV8s6OdF/smikBTHMmVkqA72gghwzMvucQ4h4u0AWzLJCX+1e3Y1Fxu/3oIZfvFnAmItSbWa8V2fGqxY697iom3Yt1WwmzGX3FS21h/1xWQ4GhPb+XlJnORA7Js9O2fEG/yf4RT32EY0jtx4ZkNOMureFbo3tWco4gEc+iB0WyQ5gc4Ux89+z8e13B9bsomD+fof15o9s744WNOGuCkGG7LYNlsz9rOmdt1TXLBRf6O97bP4jMjejr/mu9jN1jRZxoTc4+5oHeMz6s/gFOdeTdBsvHKaKBxOUQoCAhxPKbIyJITUktm+7KnJugC2cnV1D/zJisCMvpI4sA2/PIWwk2d9pZ91DXiWYMyzSIZ7jIu2aWtbg8M5PrfrnPsuP0fJxGRDfOQJNTYbR7g7mo9dGd7McGr9u4qgvaZGMrYbte844wnEfIUNKJIYUAWL+Y5fyYAKZgvYaJtXYYSdLV7t9SE7LzMO/yUXwV3B+J7jMiOqtyti/hZlK6YmG/CN/MROY0Xf7KfC1h76PMPJcdZXEbSL3WMtMbKnFAQi+64UxpOEVsS2sv4Rx86I6k1pJbFeEydiSUxXubBiQ4Y3M5za/Q4vaBzOntKMI4jZ05y1M1m2Bb3e57+hvY21J+BrYnfL2GbXLkF3Ik62JRvyF09RTm/bFP3smhSXh2wkAOZWWUNgi6jEiH6urW9dTPLXTCwrvNnCqYfNQ5zQOA5JyPqQxN/gXusEjayZLXyYQ8zZq3x23UcZJ+Y9f02uxqk35jXbiDGxXvkYO7JvlTdbOPX2eBhB6zyiRdgAS6AAjFN6hTx8+IB0K3Pcv+q/EZCosfaD5Go8XgNTYk3Mif25JcubiInP2T0fTtBZYGpcIbBHBErQe4xa2VwIDBAoQQ+AqeZCYI8IlKD3GLWyuRAYIFCCHgBTzYXAHhEoQe8xamVzITBAoAQ9AKaaC4E9IlCC3mPUyuZCYIBACXoATDUXAntE4C/hEycP+By7OgAAAABJRU5ErkJggg==;" vertex="1" parent="1">
          <mxGeometry x="1337.25" y="649.75" width="130.51" height="23" as="geometry" />
        </mxCell>
        <mxCell id="peRj1bb6XK5e7dwiMOuo-281" value="" style="shape=image;verticalLabelPosition=bottom;labelBackgroundColor=default;verticalAlign=top;aspect=fixed;imageAspect=0;image=data:image/png,iVBORw0KGgoAAAANSUhEUgAAAQcAAAA2CAYAAADK+lwbAAALEElEQVR4Ae2ZgbHUOgxFXwvUQAv0QAnUQAt0QAd0QAVUQAM0QAf0sH8O8898fT05ibPZ3bxZeWYniS1Lsux7LXtfLl06Ah2BjkARgZeirqs6Ah2BjsClyaEXQUegI1BGoMmhDEtXdgQ6Ak0OvQY6Ah2BMgJNDmVYuvLZIvD79+/L58+fL1++fHkzQ//58+fl06dPF563KE0Ot4hq67x7BN69e/cX3JXhb9++XV5eXv7+vn///krk169fl/fv398MZK8MHlgBqX348OFSjetaM00O10aw+z88AgAD8EMQo0JGgAxEEMufP3/+9rvV7htt3eqdMUBuP378ONREk8Oh4Wxlj4jAx48fL1+/fv0L/hFAIIeKPDhK0P+tFwgSgjiyNDkcGc3WdfcIkFYLCp6AvSqk3hUJQBijlNxsg3O9BVn6VLqQgaRo5xezFHWRveRC1uKxJ2YwjI16jkUW5fI4yR5oG5Gj/Weerz2d6d2yHYEHRwDQ8aMAGECZi8ABuLEISkCYC4CECAAboAPofGODuqyL/uijXlBnAENQuU673otEvdjDdqzTn4oE0G8s1HvNs8nhmuh134dGwPsCwT0CjvVxV8ZxAbk2CAAKqEfArvoDVDMa2iUofc19IJ9MBGQnkF20C2GguyrIjzKaSn6trslhLULdftoIAJQMhgwmnDelzwNhRwaQawUbAB2Aby1Zt1nHUn9JCBmITLDHMeJHJjl1Ku/3tc/1yFxroft3BG4UAXZQQBcLu2w+WgCaarfNAI56fIcQ6Jt12j56xmwFHVvIBRmJQBKA2PQdf5eODU0Oo9no+qeKAGk4gM27uaDkaWFHrkC15VjBZaRy8YJR3aOn9w6QFzqiP6M+klgkAQmMbGGNYJocRpHt+qeKwNIdQDxaCFJABrgjSQA4iCODHjLghw0zE+TUEe8AqHO3zxOAHwA6ykcZdMYjAr5RF0lAsqMu+xl18U6GEceX22e/+1gxG7GWP0UEAB5AGv1otwBe5ABpzjSQkwCUZ6fP9QIXXVHHEjkgC2CjvDZ44lMkB3RRF0lAAss+Rj28Y4O+WzKU3Hf03eQwiswbr3fHOXKxvPGQlO5DGKOdv+yQKgE/WUYuAHyJGJiXmCHk/rPfkAf6jixNDkdG80S6WPTsJKO/zk7k6kNdYcclS4g7+FaHACS7vQWSQQ+/nGEo45PsJGYI1u95OoajN4Imhz2zcfI+LFqIgUXfZT0CgJRddw9BRO3GvDq+RLkj3yF/MpS1Y8cem5vJgcAxeH5VGkYdbbF4TqP+yIuSaOPs754jiUHcZfS7iieTTT2/md3Ac6d98/NRWQTgc30wNgq+Eg8IDD8fvT6IDaB+tB+uiy1PMEkGci2pjWz9H80jqX/r/UunIgcXYlbhQp9Z5FnHrb8jgB3HlufWSWEC0ZfJQcLN8Ywg5322OE/Z3qyeI+Txn/Hx9KjDWqDONcE78fH7CLut4/oITJEDOwCTmC8+mFTBlAHDxGf5691+WxoEK+CIJWZWsZ534pnls8zoWxDmuRjJ36ve8bJhRN8k5zOQ2b1i8RbsTJEDA5IE4uBYjBAAbXHS2S1IG29xHor2z/5OTIgNRBkLMTNusV75vceASmfU/6h3M4RMApJGZw6Pmpna7tXkwAJm4XsJFieYOhbqsxfBHsnB2LhrxuMDZLs3a0AP8+HZfib2+kL/mV/cEJbsoZPNIo4VeUljRIYzvrRsPXdL8zJqmyYHJ9IJdiELAHcF2lkIWxfOyMGt9Swszvba39oPuVuDAhss2ghYSBOC0LZx4lkBaOt4POLtJZetdmblXB/MUS6SRq73uwFfA34mLsZy5rmbHJhs7iBYyADTyRecpIrVQsA5sw36rBUCoM5KFhIyLV2Trfrfq86JxB53EBJFJgfqad9b1AfxnKl475LH5j3WaK2caQzP5ss0ObAjsdABNllEBC71tEsaZhc5qII511ffa4BnUQEEbK3JVvrvVec9QM6oJFXGAHDi0WOPb2Z2W4h3j/69fZgn103UIWnEdRTb+/1xEZgmB3cmSCDfJzD57HzU5x2CIUIatCMXf0spMHJbF86M7L1DLmgZaxyv5CB4iNE1RTuRHLA3Os9fY2umr+SY++Ab8xb9zTL9/ZgITJODTF9NqAtgLUWkL9nDljID+BnZLbaPlBH8+T7BIxa+V4Q664N20EWWksloVt8R8mZ1HqWiTjcLZLqcKwLT5OBOV4GbXSsv/jxc+8d/NaIMIFn7jTKJM5ODGVc1bvwmdkcUMg9JmucZ7h6WLkkZe0UaR8SidVwXgWlyuM7cf/8MbN0pZgA/I3vtOLr/9RFwo4jHrOu1vtaAHci3IubX0vergbghxpkjH7hhLBXpL7XtGdXdyYGBzewUM4Cfkd0TrEf2YWxLv1E29Uif12ybTVULfa3v1vYMQG0ay3jHYx3PKjPeanOLnMe9rZtk1Ekf+8d63pfasuza993JgcDHnWItOMhvXfgzsmuBOVs7u9/Sb2b3OcvYvB+JAD3SN+JVHXO1mzOJpePPkX6xno84RjKOEYkttW0dy0PIAccpXJr5PnJ4K+DZIZAl6GuEM7LV9feNAHcigPdWBf3VxmL2AHnEQj19brl+vIDOtqMfW9/VVW0MS21b9d+dHGA6QMyiqCZuq+PKOdHozD9l+nm+CABAyXzWOzINNhXnm3eOqhFwyNBeAccMIcrjD2sy1ukXbWS7tKMTWzmtZx3Szg+b2GejQj5mymyIEFAu2lA/3xbsUV9lG7SNsoelNnUvPe9ODkvOdFtHYC0CgFfAASB+gicSgVlApU8dkQgAcJXFqh8b6neD869nslbe1cs7MvaNdyoAPJKF/uEv/c2AYx/0MOZYZz/s4FtVltoq+VzX5JAj0t+njQAgYWfOOyjf1McC0LOc7YLYOwe+6Y/+XABybhPA+a5EvRXJqBddEMGoSASRQPCzyjbQgS6IoypLbZV8rqu1Zqn+7gicIALsyABBUOsSgMuAhBhG5CAABSnAq3ZlMgXssQPHwjc2cxGMZhi5nW/0abdqpy77DlFU/iGrzUrXUlsln+uaHHJE+vu0EYAA8i7p3UIGXAZYHpQgpd+IRMwQyAhigUwyGdGOnlGKb3/t+l09IR/Hie2Rf/RdIoCltspurmtyyBHp79NGAJAIGp30viEDGPAugQo9HhlGO73girqt875BP3iiM2cZsZ33tWMFMpISxBfvOrIuvvVntq2Sz3VNDjki/X3aCABmAAhoADTf1uX7AkBTpf4OTlKpQK6M/2oog07BSBsgxj4FAsG3UfqvTgiryjps52k2NDruRFnIaJStLLVFHaP3JodRZLr+dBGAEAAMIARkgAigUZeLABtlBfQfgSrqknyw4V2HxBKzBEljZE+dEE3lr+0+GaPEY131xJfoR5RZaotyo/cmh1Fkuv5UEQAAAD4XsoMRiAAhoD1TgTwAfjyqZP8gkNGYoqy6KkJaaos6lt6bHJai022niABgAVD56ODZ3B09OwsAIY/cL8vd+xvCyvchjI+ylRiQRccoa1hq2zreJoetkWq5h0VAcoi7LYQA8DPIspMQCOl1tbtm2Xt+kxnwg7gYF+SwNdOhj/2zz0ttWXbtu8lhLULd/vAIsODZIQEPIOIH4NmBaVsrgA8SGWUYa/1v1b6HuBgvY6kuPpfa9oyhyWFP1LpPR+AJItDk8AST3EPsCOyJQJPDnqh1n47AE0SgyeEJJrmH2BHYE4Emhz1R6z4dgSeIQJPDE0xyD7EjsCcCTQ57otZ9OgJPEIF/AFRtIdBZSaDGAAAAAElFTkSuQmCC;" vertex="1" parent="1">
          <mxGeometry x="1337.25" y="677.25" width="133.94" height="27.5" as="geometry" />
        </mxCell>
        <mxCell id="peRj1bb6XK5e7dwiMOuo-283" value="" style="html=1;shadow=0;dashed=0;align=center;verticalAlign=middle;shape=mxgraph.arrows2.arrow;dy=0.61;dx=18.43;notch=0;strokeColor=#7EA6E0;" vertex="1" parent="1">
          <mxGeometry x="1270" y="630" width="40" height="30" as="geometry" />
        </mxCell>
        <mxCell id="peRj1bb6XK5e7dwiMOuo-286" value="" style="curved=1;endArrow=classic;html=1;rounded=0;exitX=0.5;exitY=0;exitDx=0;exitDy=0;entryX=0.003;entryY=0.081;entryDx=0;entryDy=0;entryPerimeter=0;strokeColor=#7EA6E0;" edge="1" parent="1" source="peRj1bb6XK5e7dwiMOuo-98" target="peRj1bb6XK5e7dwiMOuo-285">
          <mxGeometry width="50" height="50" relative="1" as="geometry">
            <mxPoint x="500" y="480" as="sourcePoint" />
            <mxPoint x="720" y="500" as="targetPoint" />
            <Array as="points">
              <mxPoint x="460" y="480" />
              <mxPoint x="600" y="440" />
            </Array>
          </mxGeometry>
        </mxCell>
      </root>
    </mxGraphModel>
  </diagram>
</mxfile>
